<svg width="22" height="25" viewBox="0 0 22 25" fill="none" xmlns="http://www.w3.org/2000/svg">
<path d="M3.14286 1.5625C1.40937 1.5625 0 2.96387 0 4.6875V20.3125C0 22.0361 1.40937 23.4375 3.14286 23.4375H18.8571C20.5906 23.4375 22 22.0361 22 20.3125V4.6875C22 2.96387 20.5906 1.5625 18.8571 1.5625H3.14286ZM9.42857 12.5H11.7857C12.6549 12.5 13.3571 11.8018 13.3571 10.9375C13.3571 10.0732 12.6549 9.375 11.7857 9.375H9.42857V12.5ZM11.7857 15.625H9.42857V17.1875C9.42857 18.0518 8.72634 18.75 7.85714 18.75C6.98795 18.75 6.28571 18.0518 6.28571 17.1875V14.0625V8.20312C6.28571 7.12402 7.16473 6.25 8.25 6.25H11.7857C14.3884 6.25 16.5 8.34961 16.5 10.9375C16.5 13.5254 14.3884 15.625 11.7857 15.625Z" fill="black"/>
</svg>
