<svg width="16" height="16" viewBox="0 0 16 16" fill="none" xmlns="http://www.w3.org/2000/svg">
<path fill-rule="evenodd" clip-rule="evenodd" d="M4 3.33333V2.66667C4 2.48986 4.07024 2.32029 4.19526 2.19526C4.32029 2.07024 4.48986 2 4.66667 2C4.84348 2 5.01305 2.07024 5.13807 2.19526C5.2631 2.32029 5.33333 2.48986 5.33333 2.66667V3.33333H7.33333V2.66667C7.33333 2.48986 7.40357 2.32029 7.5286 2.19526C7.65362 2.07024 7.82319 2 8 2C8.17681 2 8.34638 2.07024 8.4714 2.19526C8.59643 2.32029 8.66667 2.48986 8.66667 2.66667V3.33333H10.6667V2.66667C10.6667 2.48986 10.7369 2.32029 10.8619 2.19526C10.987 2.07024 11.1565 2 11.3333 2C11.5101 2 11.6797 2.07024 11.8047 2.19526C11.9298 2.32029 12 2.48986 12 2.66667V3.33333H12.6667C13.0203 3.33333 13.3594 3.47381 13.6095 3.72386C13.8595 3.97391 14 4.31304 14 4.66667V6H2V4.66667C2 4.31304 2.14048 3.97391 2.39052 3.72386C2.64057 3.47381 2.97971 3.33333 3.33333 3.33333H4ZM2 12.6667V7.33333H14V12.6667C14 13.0203 13.8595 13.3594 13.6095 13.6095C13.3594 13.8595 13.0203 14 12.6667 14H3.33333C2.97971 14 2.64057 13.8595 2.39052 13.6095C2.14048 13.3594 2 13.0203 2 12.6667ZM5.33333 8.66667C5.15652 8.66667 4.98695 8.73691 4.86193 8.86193C4.7369 8.98695 4.66667 9.15652 4.66667 9.33333C4.66667 9.51014 4.7369 9.67971 4.86193 9.80474C4.98695 9.92976 5.15652 10 5.33333 10H10.6667C10.8435 10 11.013 9.92976 11.1381 9.80474C11.2631 9.67971 11.3333 9.51014 11.3333 9.33333C11.3333 9.15652 11.2631 8.98695 11.1381 8.86193C11.013 8.73691 10.8435 8.66667 10.6667 8.66667H5.33333Z" fill="black"/>
</svg>
