<svg width="15" height="20" viewBox="0 0 15 20" fill="none" xmlns="http://www.w3.org/2000/svg">
<g clip-path="url(#clip0_1417_6)">
<path d="M9.44176 15.7835C11.1463 13.2518 13.504 9.19652 13.504 6.132C13.4909 4.5144 12.8525 2.96759 11.7279 1.82847C10.6033 0.689339 9.08353 0.0501709 7.49959 0.0501709C5.91566 0.0501709 4.39587 0.689339 3.27126 1.82847C2.14664 2.96759 1.50828 4.5144 1.49523 6.132C1.49523 9.19735 3.85454 13.2543 5.55906 15.7851C2.57024 15.996 0 16.6972 0 17.8572C0 19.2642 3.77295 19.9996 7.4998 19.9996C11.2266 19.9996 15 19.2638 15 17.8568C15 16.6976 12.4326 15.9943 9.44176 15.7835ZM2.08924 6.132C2.10163 4.67463 2.67719 3.28126 3.69064 2.25519C4.70408 1.22912 6.07336 0.65343 7.50041 0.65343C8.92745 0.65343 10.2967 1.22912 11.3102 2.25519C12.3236 3.28126 12.8992 4.67463 12.9116 6.132C12.9116 10.0869 8.56053 16.0701 7.50021 17.4688C6.44029 16.0701 2.08924 10.0886 2.08924 6.132ZM7.4998 19.3938C3.28379 19.3938 0.593195 18.4838 0.593195 17.8572C0.593195 17.3118 2.64531 16.5559 5.9601 16.3697C6.67038 17.3901 7.19994 18.0626 7.26929 18.1501C7.29718 18.1849 7.33232 18.213 7.37215 18.2323C7.41198 18.2516 7.45551 18.2616 7.49959 18.2616C7.54367 18.2616 7.58721 18.2516 7.62704 18.2323C7.66687 18.213 7.702 18.1849 7.72989 18.1501C7.79925 18.0622 8.32921 17.3893 9.04072 16.368C12.3555 16.5543 14.406 17.3122 14.406 17.8572C14.4068 18.4838 11.7162 19.3938 7.4998 19.3938Z" fill="#354A53"/>
<path d="M10.7637 6.18654C10.7637 5.52728 10.5723 4.88283 10.2136 4.33468C9.855 3.78652 9.34526 3.35929 8.74888 3.107C8.1525 2.85472 7.49626 2.78871 6.86315 2.91732C6.23003 3.04594 5.64848 3.3634 5.19203 3.82956C4.73558 4.29573 4.42473 4.88966 4.2988 5.53625C4.17286 6.18284 4.2375 6.85305 4.48453 7.46212C4.73156 8.0712 5.14989 8.59178 5.68661 8.95805C6.22334 9.32431 6.85436 9.5198 7.49988 9.5198C8.3652 9.51881 9.19479 9.16731 9.80666 8.54242C10.4185 7.91752 10.7627 7.07027 10.7637 6.18654ZM4.82969 6.18654C4.82961 5.64706 4.98618 5.11968 5.2796 4.67109C5.57301 4.2225 5.9901 3.87286 6.47811 3.66637C6.96611 3.45989 7.50311 3.40584 8.0212 3.51106C8.53928 3.61629 9.01518 3.87606 9.38869 4.25753C9.76221 4.63899 10.0166 5.12501 10.1196 5.65412C10.2226 6.18324 10.1697 6.73167 9.96753 7.23006C9.76534 7.72845 9.42298 8.15442 8.98374 8.45408C8.5445 8.75374 8.02811 8.91365 7.49988 8.91356C6.79203 8.91246 6.11349 8.6248 5.61296 8.11362C5.11244 7.60244 4.83077 6.90945 4.82969 6.18654Z" fill="#354A53"/>
</g>
<defs>
<clipPath id="clip0_1417_6">
<rect width="15" height="20" fill="white"/>
</clipPath>
</defs>
</svg>
