<?xml version="1.0" encoding="UTF-8"?>
<svg id="Layer_2" xmlns="http://www.w3.org/2000/svg" viewBox="0 0 177.99 31.53">
  <defs>
    <style>
      .cls-1 {
        fill: #fff;
      }
    </style>
  </defs>
  <g id="Layer_1-2" data-name="Layer_1">
    <g>
      <path class="cls-1" d="M158.17,7.17c0,5.53.12,10.95-.04,16.36-.11,3.83-2.68,6.66-6.44,7.48-3.1.67-6.23.92-9.14-.68-2.08-1.13-2.18-3.73-.28-4.94,1.27-.82,2.97-.6,4.17.52-.02.1,0,.22-.06.29-1.03,1.13-1.44,2.39-.55,3.75.71,1.07,2.57,1.4,4.07.53.94-.55,1.97-1.47,2.3-2.44.6-1.8.72-3.76,1.04-5.65-.15-.05-.29-.1-.44-.16-.2.13-.42.24-.6.39-3.91,3.25-8.69,2.13-10.59-2.59-1.38-3.43-1.23-6.88.65-10.1,1.61-2.77,4.99-3.75,7.72-2.12,1.46.87,2.76.79,4.21.44,1.28-.31,2.54-.68,3.99-1.07h0ZM153.02,16.27c0-1.32.04-2.65-.01-3.97-.05-1.41-1.61-3.09-2.99-3.3-1.68-.26-2.53.73-3.13,2.1-1.1,2.53-1.13,5.15-.48,7.76.24.93.75,1.88,1.37,2.62.9,1.08,2.18,1.23,3.48.74,1.26-.47,1.95-1.3,1.77-2.78-.13-1.04-.02-2.11-.02-3.18h0Z"/>
      <path class="cls-1" d="M7.83,13.06c.77-1.2,1.4-2.42,2.24-3.46,1.96-2.41,5.48-3.19,7.87-1.86,1.79.99,2.32,3,1.29,4.77-.83,1.42-1.63,1.48-2.86.43-1.47-1.27-3.23-1.21-4.96-.66-1.99.63-3.36,2.04-3.55,4.08-.23,2.46-.05,4.96-.05,7.86,2.72-.26,5.38-.26,7.91-.82,2.66-.6,3.94-3.1,5.41-5.24.11.07.23.14.34.21-.41,1.98-.84,3.96-1.28,6.06H0c1.75-.83,1.72-2.29,1.72-3.83-.03-5.68-.04-11.36,0-17.04C1.73,2.14,1.52.95,0,.25h20c.16,1.51.34,3.02.5,4.53-.1.06-.21.13-.32.19-.31-.4-.67-.77-.92-1.2-1.15-1.99-2.74-3.16-5.14-3.08-2.06.07-4.13.01-6.31.01v12.36h.01Z"/>
      <path class="cls-1" d="M109.56,8.93c1.66-.27,2.78-1.17,3.08-2.9.41-2.31-.4-4.28-2.05-5.05-1.68-.78-3.97-.09-5.4,1.63-2.99,3.61-3.06,10.89-.13,14.63,2.91,3.74,8.19,4.05,11.6.69.29-.28.59-.55.88-.82l.46.3c-.67,1.12-1.19,2.36-2.03,3.35-2.71,3.2-6.3,4.32-10.31,3.46-4-.85-6.59-3.56-7.88-7.37-1.93-5.69-.24-11.57,4.25-14.66,3.92-2.71,8.14-2.85,12.35-.73,2.83,1.43,4.13,4.57,3.33,7.54-.55,2.07-2.35,3.3-4.7,3.22-1.97-.07-2.97-1-3.46-3.3h0Z"/>
      <path class="cls-1" d="M84.12,24.49c-1.77,0-3.56.08-5.33-.02-1.3-.08-1.52-1.15-1.52-2.22-.01-2.92,0-5.83-.01-8.75-.01-2.23-.63-3.4-1.97-3.76-1.17-.32-4.2.83-4.85,1.91-.2.32-.18.8-.19,1.21-.01,3.08,0,6.16-.02,9.23-.01,1.93-.52,2.44-2.47,2.47-1.38.02-2.75-.01-4.14-.03-.09,0-.16-.1-.43-.25,2.22-.89,1.83-2.78,1.84-4.5.01-2.44,0-4.88,0-7.32,0-1.45-.01-2.88-2.24-3.44,2.74-.65,5.02-1.19,7.41-1.76v3.65c1.35-.85,2.43-1.72,3.65-2.26,1.52-.66,3.14-1.32,4.77-1.47,2.43-.24,3.66,1.02,3.72,3.47.09,3.44.08,6.89.12,10.34.02,1.99.15,2.24,1.65,3.52v-.02Z"/>
      <path class="cls-1" d="M139.42,24.43c-2.08,0-3.99.21-5.81-.1-.68-.12-1.15-1.43-1.8-2.31-1.46,1.33-3.44,2.28-5.79,2.47-3.17.26-5.72-1.41-5.95-4.16-.2-2.33,1.11-3.94,2.94-5.1,1.65-1.05,3.45-1.85,5.12-2.87.89-.54,1.76-1.21,2.43-2,.83-.98.57-2.16-.63-2.35-1.27-.19-2.75-.08-3.91.43-1.31.57-1.13,1.77.38,3.48-.79.38-1.47.85-2.24,1.08-1.77.53-3.56-.24-4.01-1.63-.41-1.24.48-2.67,2.3-3.3,3.82-1.33,7.7-1.44,11.55-.18,2.56.85,3.49,2.33,3.5,5.04,0,2.55,0,5.1,0,7.64,0,1.61.64,2.9,1.93,3.85h0ZM131.88,10.16c-1.13,1.24-2.24,2.35-3.22,3.55-1.11,1.37-2.41,2.71-3.08,4.29-.9,2.15.27,4.42,2.11,4.95,1.64.48,3.79-.69,4.25-2.69.78-3.38.54-6.8-.06-10.11h0Z"/>
      <path class="cls-1" d="M61.86,19.29c-1.18,2.69-3.1,4.1-5.61,4.83-3.76,1.1-7.95-.19-10.15-3.13-2.08-2.77-2.25-6.73-.43-9.73,3.19-5.24,11.09-5.1,14.64-2.08,2.27,1.93,1.99,5.01-.54,6.56-.85.52-1.91.76-2.67,1.38-.61.5-.91,1.39-1.35,2.1.79.41,1.58,1.18,2.36,1.16,1.15-.03,2.29-.62,3.74-1.08h0ZM55.54,20.42c-2.15-2.16-1.53-4.32-.13-6.5.4-.62.83-1.27,1.01-1.97.33-1.3.53-2.82-.8-3.6-.77-.46-2.08-.55-2.93-.23-2.52.97-3.78,4.25-3.14,7.45.54,2.72,3.46,5.06,6,4.85h0Z"/>
      <path class="cls-1" d="M177.99,19.08c-2.08,5.21-9.01,7.02-13.65,3.88-3.16-2.15-4.53-5.93-3.49-9.63.96-3.38,4.23-5.96,7.86-6.2,2.26-.15,4.45.09,6.47,1.18,1.58.85,2.73,2.06,2.75,3.97.02,1.94-1.15,3.09-2.79,3.89-.9.44-1.86.82-2.63,1.44-1.17.94-.9,2.31.57,2.58,1.02.19,2.15-.13,3.21-.32.48-.09.92-.41,1.69-.78h0ZM171.56,20.4c-1.68-2.28-1.7-3.71-.23-6.22.55-.94,1.04-1.96,1.32-3.01.32-1.2.02-2.54-1.15-2.99-.9-.35-2.19-.26-3.1.13-1.6.68-2.38,2.21-2.74,3.87-.99,4.46,1.93,8.26,5.89,8.23h0Z"/>
      <path class="cls-1" d="M35.88,20.07c1.08-2.53,2.02-4.71,2.95-6.9.96-2.26.18-4.57-2.21-5.92h5.94c-.57.88-1.26,1.69-1.68,2.63-1.95,4.45-3.85,8.93-5.72,13.42-.37.88-.8,1.31-1.84,1.31s-1.47-.41-1.84-1.31c-1.91-4.58-3.85-9.15-5.85-13.7-.37-.84-1.05-1.55-1.63-2.39,1.82,0,3.88-.08,5.91.07.4.03.82.9,1.07,1.46,1.42,3.24,2.78,6.52,4.17,9.77.18.42.38.83.72,1.56h0Z"/>
      <path class="cls-1" d="M95.83,22.72c-1.77,1.69-4.73,2.26-6.53,1.41-1.45-.69-1.82-2.01-1.83-3.44-.04-3.71-.04-7.42-.05-11.14v-1.71c-.67-.15-1.21-.27-1.47-.33,2.13-1.24,4.36-2.52,6.59-3.82v3.28c1.07.07,1.92.13,2.77.2,0,.13,0,.26.01.38-.84.07-1.69.13-2.74.21v11.1c0,2.1.53,3.8,3.24,3.84h0Z"/>
    </g>
  </g>
</svg>