<?xml version="1.0" encoding="UTF-8"?>
<svg id="Layer_2" xmlns="http://www.w3.org/2000/svg" viewBox="0 0 92.88 128.18">
  <defs>
    <style>
      .cls-1 {
        fill: #fff;
      }
    </style>
  </defs>
  <g id="Layer_1-2" data-name="Layer_1">
    <path class="cls-1" d="M3.61,122.09c.83-1.66-.83-4.62,2.98-4.59v-4.3H0v-3.04c2.18-.11,4.33-.26,6.59-.37.03-.6.09-1.03.09-1.46v-21.39c0-4.27,0-8.54.09-12.82,0-1.2-.37-1.52-1.52-1.46-1.72.09-3.44,0-5.25,0v-3.07h6.62v-8.4H0v-3.1h6.71c.4-2.38.66-4.53,1.12-6.62,2.9-12.87,10.67-21.79,22.34-27.5,3.96-1.95,8.09-3.47,12.44-4.33.34-.06.83-.54.89-.86.09-.63.26-1.32-.6-1.84-1.23-.75-2.52-1.58-3.44-2.67-3.24-3.96-2.29-9.78,1.92-12.7,4.19-2.9,9.95-1.66,12.64,2.67,2.67,4.33,1.12,10.01-3.38,12.44-.49.26-1.09.57-1.29,1-.49,1.12.03,1.72,1.26,2.04,14.25,3.5,25.86,10.47,32.11,24.46,1.66,3.73,2.61,7.66,3.07,11.7.06.63.17,1.23.29,2.09h6.8v3.15h-6.71v8.37h6.71v3.18h-5.71c-.8,0-1.09.23-1.09,1.06v35.15c0,.17.06.34.09.72h6.71v3.07h-6.71v4.82c3.87-.09,2.06,2.98,2.7,4.93,1.66-.11,1.84.97,1.72,2.32-.09,1.09,0,2.21,0,3.44H2.09c0-1.52-.14-3.04.06-4.5.09-.57.95-1.03,1.46-1.55v-.06.02ZM32.51,60.5h-6.57v49.23h6.65v-14.57h2.67v13.59h9.69v-12.33h2.64v12.36h9.89v-13.59h2.67v14.54h6.59v-49.23h-6.71v14.77h-2.75v-13.5h-9.58v12.39h-2.64v-12.42h-9.86v13.53h-2.67v-14.77h-.03,0ZM23.11,109.62c.03-.29.09-.52.09-.72,0-11.73-.03-23.43,0-35.15,0-.92-.37-1.12-1.18-1.12-3.7.03-7.4.03-11.1,0-1,0-1.29.32-1.29,1.29.03,4.67,0,9.35,0,14.02v20.3c0,.43.06.86.09,1.35h13.45s-.06.03-.06.03ZM69.7,72.66v36.79h13.45v-9.58c0-8.54,0-17.12.09-25.66,0-1.18-.23-1.72-1.52-1.58-1.23.11-2.49,0-3.73,0h-8.23s-.06.03-.06.03ZM67.15,57.89c-.52-3.64-.8-7.11-1.49-10.49-1.52-7.43-4.64-14.05-10.12-19.47-1.78-1.78-3.61-2.81-6.22-2.44-1.15.17-1.46.4-1.46,1.55.06,9.83,0,19.67,0,29.5,0,.43.03.86.06,1.35h19.24-.01ZM25.75,57.89h19.24v-31.31c0-.6-.09-.95-.86-1.03-2.58-.32-4.85.06-6.57,2.21-.66.83-1.49,1.52-2.21,2.32-4.5,5.25-7.05,11.41-8.34,18.12-.6,3.13-.86,6.34-1.29,9.69h.03ZM83.09,57.87c-.89-9.98-4.53-18.49-11.99-25.15-4.13-3.7-8.83-6.37-14.25-7.97,9.23,9.15,12.44,20.59,12.99,33.12h13.25ZM35.96,24.81c-5.48,1.58-10.26,4.33-14.45,8.17-7.28,6.65-10.87,15.05-11.7,24.86h13.22c.54-12.5,3.73-23.86,12.93-33v-.03ZM9.72,61.16v8.17h13.3v-8.17h-13.3ZM83.12,61.19h-13.28v8.14h13.28v-8.14ZM26.24,112.23v5.22h18.58v-5.22h-18.58ZM47.91,117.39c.2.06.32.14.43.14,5.79,0,11.58,0,17.38.03.72,0,.95-.29.92-.95,0-1.03-.06-2.06,0-3.07.11-1.12-.32-1.43-1.43-1.43-5.48.06-10.95.06-16.43.09-.29,0-.6.06-.92.11v5.08h.06-.01ZM49.46,13.8c2.15-.86,3.47-3.87,2.75-6.51-.69-2.61-3.13-4.47-5.82-4.44-2.72,0-5.16,1.98-5.79,4.64-.6,2.58.57,5.22,2.78,6.31.49-1.81.83-2.12,2.47-2.15,2.87-.03,2.95,0,3.61,2.15h0ZM83.07,117.51v-4.7h-13.42v4.7h13.42ZM9.69,113.26v4.21h13.45v-4.21h-13.45Z"/>
  </g>
</svg>