<svg width="15" height="15" viewBox="0 0 15 15" fill="none" xmlns="http://www.w3.org/2000/svg">
<path d="M9.74534 1.89199C9.17522 1.27646 8.37893 0.9375 7.50003 0.9375C6.61643 0.9375 5.81751 1.27441 5.25003 1.88613C4.6764 2.50459 4.3969 3.34512 4.46253 4.25273C4.59261 6.04336 5.9552 7.5 7.50003 7.5C9.04485 7.5 10.4051 6.04365 10.5372 4.25332C10.6037 3.35391 10.3225 2.51514 9.74534 1.89199Z" fill="#354A53"/>
<path d="M12.6562 14.0625H2.34367C2.20869 14.0643 2.07502 14.0359 1.95237 13.9795C1.82973 13.9231 1.7212 13.8401 1.63469 13.7364C1.44426 13.5088 1.3675 13.1979 1.42434 12.8836C1.6716 11.5119 2.44328 10.3597 3.65617 9.55078C4.73371 8.83271 6.09865 8.4375 7.49992 8.4375C8.90119 8.4375 10.2661 8.83301 11.3437 9.55078C12.5566 10.3594 13.3282 11.5116 13.5755 12.8833C13.6323 13.1977 13.5556 13.5085 13.3652 13.7361C13.2787 13.8398 13.1702 13.9229 13.0475 13.9794C12.9249 14.0358 12.7912 14.0642 12.6562 14.0625Z" fill="#354A53"/>
</svg>
