<svg width="15" height="15" viewBox="0 0 15 15" fill="none" xmlns="http://www.w3.org/2000/svg">
<path d="M3.125 1.875C2.79348 1.875 2.47554 2.0067 2.24112 2.24112C2.0067 2.47554 1.875 2.79348 1.875 3.125V4.375C1.875 4.70652 2.0067 5.02446 2.24112 5.25888C2.47554 5.4933 2.79348 5.625 3.125 5.625H4.375C4.70652 5.625 5.02446 5.4933 5.25888 5.25888C5.4933 5.02446 5.625 4.70652 5.625 4.375V3.125C5.625 2.79348 5.4933 2.47554 5.25888 2.24112C5.02446 2.0067 4.70652 1.875 4.375 1.875H3.125ZM3.125 9.375C2.79348 9.375 2.47554 9.5067 2.24112 9.74112C2.0067 9.97554 1.875 10.2935 1.875 10.625V11.875C1.875 12.2065 2.0067 12.5245 2.24112 12.7589C2.47554 12.9933 2.79348 13.125 3.125 13.125H4.375C4.70652 13.125 5.02446 12.9933 5.25888 12.7589C5.4933 12.5245 5.625 12.2065 5.625 11.875V10.625C5.625 10.2935 5.4933 9.97554 5.25888 9.74112C5.02446 9.5067 4.70652 9.375 4.375 9.375H3.125ZM10.625 9.375C10.2935 9.375 9.97554 9.5067 9.74112 9.74112C9.5067 9.97554 9.375 10.2935 9.375 10.625V11.875C9.375 12.2065 9.5067 12.5245 9.74112 12.7589C9.97554 12.9933 10.2935 13.125 10.625 13.125H11.875C12.2065 13.125 12.5245 12.9933 12.7589 12.7589C12.9933 12.5245 13.125 12.2065 13.125 11.875V10.625C13.125 10.2935 12.9933 9.97554 12.7589 9.74112C12.5245 9.5067 12.2065 9.375 11.875 9.375H10.625ZM10.625 1.875C10.2935 1.875 9.97554 2.0067 9.74112 2.24112C9.5067 2.47554 9.375 2.79348 9.375 3.125V4.375C9.375 4.70652 9.5067 5.02446 9.74112 5.25888C9.97554 5.4933 10.2935 5.625 10.625 5.625H11.875C12.2065 5.625 12.5245 5.4933 12.7589 5.25888C12.9933 5.02446 13.125 4.70652 13.125 4.375V3.125C13.125 2.79348 12.9933 2.47554 12.7589 2.24112C12.5245 2.0067 12.2065 1.875 11.875 1.875H10.625Z" fill="#354A53"/>
<path fill-rule="evenodd" clip-rule="evenodd" d="M6.25 4.0625C6.25 3.89674 6.31585 3.73777 6.43306 3.62056C6.55027 3.50335 6.70924 3.4375 6.875 3.4375H8.125C8.29076 3.4375 8.44973 3.50335 8.56694 3.62056C8.68415 3.73777 8.75 3.89674 8.75 4.0625C8.75 4.22826 8.68415 4.38723 8.56694 4.50444C8.44973 4.62165 8.29076 4.6875 8.125 4.6875H6.875C6.70924 4.6875 6.55027 4.62165 6.43306 4.50444C6.31585 4.38723 6.25 4.22826 6.25 4.0625ZM6.25 11.25C6.25 11.0842 6.31585 10.9253 6.43306 10.8081C6.55027 10.6908 6.70924 10.625 6.875 10.625H8.125C8.29076 10.625 8.44973 10.6908 8.56694 10.8081C8.68415 10.9253 8.75 11.0842 8.75 11.25C8.75 11.4158 8.68415 11.5747 8.56694 11.6919C8.44973 11.8092 8.29076 11.875 8.125 11.875H6.875C6.70924 11.875 6.55027 11.8092 6.43306 11.6919C6.31585 11.5747 6.25 11.4158 6.25 11.25ZM3.75 8.75C3.58424 8.75 3.42527 8.68415 3.30806 8.56694C3.19085 8.44973 3.125 8.29076 3.125 8.125V6.875C3.125 6.70924 3.19085 6.55027 3.30806 6.43306C3.42527 6.31585 3.58424 6.25 3.75 6.25C3.91576 6.25 4.07473 6.31585 4.19194 6.43306C4.30915 6.55027 4.375 6.70924 4.375 6.875V8.125C4.375 8.29076 4.30915 8.44973 4.19194 8.56694C4.07473 8.68415 3.91576 8.75 3.75 8.75ZM11.25 8.75C11.0842 8.75 10.9253 8.68415 10.8081 8.56694C10.6908 8.44973 10.625 8.29076 10.625 8.125V6.875C10.625 6.70924 10.6908 6.55027 10.8081 6.43306C10.9253 6.31585 11.0842 6.25 11.25 6.25C11.4158 6.25 11.5747 6.31585 11.6919 6.43306C11.8092 6.55027 11.875 6.70924 11.875 6.875V8.125C11.875 8.29076 11.8092 8.44973 11.6919 8.56694C11.5747 8.68415 11.4158 8.75 11.25 8.75Z" fill="#354A53"/>
</svg>
