<svg width="15" height="15" viewBox="0 0 15 15" fill="none" xmlns="http://www.w3.org/2000/svg">
<path fill-rule="evenodd" clip-rule="evenodd" d="M1.25 7.5C1.25 4.04813 4.04813 1.25 7.5 1.25C10.9519 1.25 13.75 4.04813 13.75 7.5C13.75 10.9519 10.9519 13.75 7.5 13.75C4.04813 13.75 1.25 10.9519 1.25 7.5ZM8.125 5C8.125 4.83424 8.05915 4.67527 7.94194 4.55806C7.82473 4.44085 7.66576 4.375 7.5 4.375C7.33424 4.375 7.17527 4.44085 7.05806 4.55806C6.94085 4.67527 6.875 4.83424 6.875 5V7.5C6.87504 7.66575 6.94091 7.82469 7.05813 7.94187L8.93313 9.81687C9.051 9.93072 9.20888 9.99372 9.37275 9.9923C9.53662 9.99087 9.69338 9.92514 9.80926 9.80926C9.92514 9.69338 9.99087 9.53662 9.9923 9.37275C9.99372 9.20888 9.93072 9.051 9.81687 8.93313L8.125 7.24125V5Z" fill="#354A53"/>
</svg>
